<?xml version="1.0" encoding="UTF-8" standalone="no"?>
<svg
   xmlns:dc="http://purl.org/dc/elements/1.1/"
   xmlns:cc="http://creativecommons.org/ns#"
   xmlns:rdf="http://www.w3.org/1999/02/22-rdf-syntax-ns#"
   xmlns:svg="http://www.w3.org/2000/svg"
   xmlns="http://www.w3.org/2000/svg"
   xmlns:sodipodi="http://sodipodi.sourceforge.net/DTD/sodipodi-0.dtd"
   xmlns:inkscape="http://www.inkscape.org/namespaces/inkscape"
   version="1.1"
   viewBox="0 0 470 470"
   enable-background="new 0 0 470 470"
   id="svg3793"
   sodipodi:docname="book.svg"
   inkscape:version="0.92.4 (5da689c313, 2019-01-14)">
  <metadata
     id="metadata3799">
    <rdf:RDF>
      <cc:Work
         rdf:about="">
        <dc:format>image/svg+xml</dc:format>
        <dc:type
           rdf:resource="http://purl.org/dc/dcmitype/StillImage" />
      </cc:Work>
    </rdf:RDF>
  </metadata>
  <defs
     id="defs3797" />
  <sodipodi:namedview
     pagecolor="#ffffff"
     bordercolor="#666666"
     borderopacity="1"
     objecttolerance="10"
     gridtolerance="10"
     guidetolerance="10"
     inkscape:pageopacity="0"
     inkscape:pageshadow="2"
     inkscape:window-width="1920"
     inkscape:window-height="1017"
     id="namedview3795"
     showgrid="false"
     inkscape:zoom="1.8042553"
     inkscape:cx="235"
     inkscape:cy="235"
     inkscape:window-x="1358"
     inkscape:window-y="-8"
     inkscape:window-maximized="1"
     inkscape:current-layer="svg3793" />
  <g
     id="g3791">
    <path
       d="m235,135.95c4.143,0 7.5-3.358 7.5-7.5v-30c0-4.142-3.357-7.5-7.5-7.5s-7.5,3.358-7.5,7.5v30c0,4.142 3.357,7.5 7.5,7.5z"
       id="path3757" />
    <path
       d="m235,358.798c4.143,0 7.5-3.358 7.5-7.5v-192.848c0-4.142-3.357-7.5-7.5-7.5s-7.5,3.358-7.5,7.5v192.848c0,4.142 3.357,7.5 7.5,7.5z"
       id="path3759" />
    <path
       d="m462.5,75.527c-4.143,0-7.5,3.358-7.5,7.5v314.035h-191.268c-3.839,0-7.414,1.824-9.675,4.907l-6.429,7.502-25.254,.002-6.432-7.502c-2.265-3.084-5.841-4.909-9.676-4.909h-191.266v-314.035c0-4.142-3.357-7.5-7.5-7.5s-7.5,3.358-7.5,7.5v321.535c0,4.142 3.357,7.5 7.5,7.5h197.337l8.396,9.793c1.425,1.662 3.505,2.618 5.694,2.618l32.152-.003c2.189,0 4.27-0.957 5.694-2.62l8.389-9.789h197.338c4.143,0 7.5-3.358 7.5-7.5v-321.534c0-4.142-3.357-7.5-7.5-7.5z"
       id="path3761" />
    <path
       d="m37.5,382.062h168.768c9.057,0 17.463,4.509 22.488,12.063 1.391,2.09 3.734,3.346 6.245,3.346 2.51,0 4.854-1.256 6.244-3.347 5.022-7.553 13.429-12.062 22.487-12.062h168.768c4.143,0 7.5-3.358 7.5-7.5v-321.535c0-4.142-3.357-7.5-7.5-7.5h-168.768c-10.816,0-21.035,4.134-28.732,11.373-7.698-7.238-17.916-11.373-28.732-11.373h-168.768c-4.143,0-7.5,3.358-7.5,7.5v321.535c0,4.142 3.357,7.5 7.5,7.5zm7.5-321.535h161.268c9.056,1.42109e-14 17.462,4.514 22.486,12.075 1.39,2.092 3.734,3.349 6.246,3.349s4.856-1.257 6.247-3.349c5.023-7.561 13.429-12.074 22.485-12.074h161.268v306.535h-161.268c-10.817,0-21.035,4.131-28.733,11.363-7.698-7.232-17.916-11.363-28.731-11.363h-161.268v-306.536z"
       id="path3763" />
    <path
       d="m195,85.527h-117.5c-4.143,0-7.5,3.358-7.5,7.5s3.357,7.5 7.5,7.5h117.5c4.143,0 7.5-3.358 7.5-7.5s-3.357-7.5-7.5-7.5z"
       id="path3765" />
    <path
       d="m195,115.527h-117.5c-4.143,0-7.5,3.358-7.5,7.5s3.357,7.5 7.5,7.5h117.5c4.143,0 7.5-3.358 7.5-7.5s-3.357-7.5-7.5-7.5z"
       id="path3767" />
    <path
       d="m195,145.527h-117.5c-4.143,0-7.5,3.358-7.5,7.5s3.357,7.5 7.5,7.5h117.5c4.143,0 7.5-3.358 7.5-7.5s-3.357-7.5-7.5-7.5z"
       id="path3769" />
    <path
       d="m195,175.527h-117.5c-4.143,0-7.5,3.358-7.5,7.5s3.357,7.5 7.5,7.5h117.5c4.143,0 7.5-3.358 7.5-7.5s-3.357-7.5-7.5-7.5z"
       id="path3771" />
    <path
       d="m195,205.527h-117.5c-4.143,0-7.5,3.358-7.5,7.5s3.357,7.5 7.5,7.5h117.5c4.143,0 7.5-3.358 7.5-7.5s-3.357-7.5-7.5-7.5z"
       id="path3773" />
    <path
       d="m77.5,250.527h58.75c4.143,0 7.5-3.358 7.5-7.5s-3.357-7.5-7.5-7.5h-58.75c-4.143,0-7.5,3.358-7.5,7.5s3.357,7.5 7.5,7.5z"
       id="path3775" />
    <path
       d="m195,265.527h-117.5c-4.143,0-7.5,3.358-7.5,7.5v61.535c0,4.142 3.357,7.5 7.5,7.5h117.5c4.143,0 7.5-3.358 7.5-7.5v-61.535c0-4.142-3.357-7.5-7.5-7.5zm-7.5,61.535h-102.5v-46.535h102.5v46.535z"
       id="path3777" />
    <path
       d="m265,222.062h117.5c4.143,0 7.5-3.358 7.5-7.5s-3.357-7.5-7.5-7.5h-117.5c-4.143,0-7.5,3.358-7.5,7.5s3.357,7.5 7.5,7.5z"
       id="path3779" />
    <path
       d="m265,252.062h117.5c4.143,0 7.5-3.358 7.5-7.5s-3.357-7.5-7.5-7.5h-117.5c-4.143,0-7.5,3.358-7.5,7.5s3.357,7.5 7.5,7.5z"
       id="path3781" />
    <path
       d="m265,282.062h117.5c4.143,0 7.5-3.358 7.5-7.5s-3.357-7.5-7.5-7.5h-117.5c-4.143,0-7.5,3.358-7.5,7.5s3.357,7.5 7.5,7.5z"
       id="path3783" />
    <path
       d="m265,312.062h117.5c4.143,0 7.5-3.358 7.5-7.5s-3.357-7.5-7.5-7.5h-117.5c-4.143,0-7.5,3.358-7.5,7.5s3.357,7.5 7.5,7.5z"
       id="path3785" />
    <path
       d="m265,342.062h58.75c4.143,0 7.5-3.358 7.5-7.5s-3.357-7.5-7.5-7.5h-58.75c-4.143,0-7.5,3.358-7.5,7.5s3.357,7.5 7.5,7.5z"
       id="path3787" />
    <path
       d="m265,177.062c-4.143,0-7.5,3.358-7.5,7.5s3.357,7.5 7.5,7.5c10.753,0 19.776-2.708 27.572-7.136 0.395-0.187 0.771-0.404 1.125-0.654 12.538-7.501 21.85-19.482 30.053-31.738 8.2,12.251 17.508,24.228 30.039,31.729 0.365,0.259 0.754,0.485 1.164,0.676 7.79,4.419 16.806,7.122 27.548,7.122 4.143,0 7.5-3.358 7.5-7.5s-3.357-7.5-7.5-7.5c-6.348,0-11.895-1.239-16.875-3.451v-69.633c4.98-2.212 10.527-3.451 16.875-3.451 4.143,0 7.5-3.358 7.5-7.5s-3.357-7.5-7.5-7.5c-10.746,0-19.765,2.705-27.558,7.127-0.403,0.19-0.788,0.412-1.148,0.667-12.534,7.501-21.843,19.479-30.044,31.732-8.205-12.258-17.518-24.24-30.059-31.741-0.349-0.246-0.72-0.46-1.109-0.644-7.798-4.431-16.824-7.141-27.582-7.141-4.143,0-7.5,3.358-7.5,7.5s3.357,7.5 7.5,7.5c6.348,0 11.895,1.239 16.875,3.451v69.633c-4.981,2.213-10.528,3.452-16.876,3.452zm85.625-62.267v47.999c-6.457-6.591-12.117-14.957-17.957-23.999 5.84-9.043 11.5-17.41 17.957-24zm-53.75,0c6.457,6.591 12.117,14.957 17.957,23.999-5.841,9.042-11.5,17.409-17.957,23.999v-47.998z"
       id="path3789" />
  </g>
  <path
     style="fill:#ffffff;stroke:#ffffff;stroke-width:0.55424529"
     d="m 231.62403,396.34705 c -0.78987,-0.4294 -2.45553,-2.13095 -3.70149,-3.7812 -2.38348,-3.1569 -5.98899,-6.07493 -10.02434,-8.11297 -5.63227,-2.84454 -3.38813,-2.77962 -96.44513,-2.78996 l -86.666028,-0.01 -2.151776,-2.15177 -2.151775,-2.15178 V 213.82471 50.299672 l 1.374391,-1.633371 c 0.755915,-0.898354 2.065434,-1.91961 2.910043,-2.269459 1.13929,-0.471909 24.424265,-0.594205 90.214645,-0.473817 83.24377,0.152325 88.88281,0.222929 92.00446,1.151957 4.75192,1.414209 11.74679,4.968472 14.88641,7.564141 1.48116,1.224544 2.87167,2.226443 3.09003,2.226443 0.21836,0 1.8595,-1.135644 3.64699,-2.523654 3.67867,-2.856555 9.48703,-5.783947 14.40251,-7.25882 3.13227,-0.939827 8.47752,-1.007224 92.00446,-1.160067 65.79038,-0.120388 89.07536,0.0019 90.21465,0.473817 0.84461,0.349849 2.15412,1.371105 2.91004,2.269459 l 1.37439,1.633371 V 213.82471 377.34975 l -2.15177,2.15178 -2.15178,2.15177 -86.66603,0.01 c -72.30743,0.008 -87.27494,0.13868 -90.34127,0.78863 -6.49981,1.3777 -12.23377,4.95615 -16.05825,10.02163 -1.28833,1.70639 -3.03704,3.46173 -3.88603,3.90076 -1.93677,1.00154 -4.7667,0.99007 -6.63735,-0.0269 z m 5.10941,-18.94567 c 1.37502,-1.67472 8.15607,-5.7414 11.97668,-7.18259 8.1381,-3.06979 5.16678,-2.97587 94.13934,-2.97587 h 82.25667 V 213.70651 60.170103 l -83.55247,0.149029 -83.55248,0.149028 -3.32547,1.318528 c -4.98024,1.974633 -9.07801,4.985758 -12.40073,9.112308 -3.52644,4.379558 -5.81751,5.423038 -9.49061,4.322549 -1.66886,-0.500002 -2.75688,-1.396462 -4.40881,-3.632602 -3.32326,-4.498534 -7.76444,-7.82571 -13.2447,-9.922462 L 211.99882,60.46816 128.44634,60.319132 44.893868,60.170103 V 213.70651 367.24292 h 82.256672 c 88.97256,0 86.00124,-0.0939 94.13934,2.97587 3.82061,1.44119 10.60166,5.50787 11.97668,7.18259 0.41838,0.50955 1.19842,0.92645 1.73344,0.92645 0.53502,0 1.31506,-0.4169 1.73344,-0.92645 z"
     id="path3801"
     inkscape:connector-curvature="0" />
  <path
     style="fill:#ffffff;stroke:#ffffff;stroke-width:0.55424529"
     d="m 215.78079,423.36026 c -0.95875,-0.53346 -3.80534,-3.40168 -6.32575,-6.37382 l -4.58256,-5.40389 h -99.73816 c -98.9171489,0 -99.7529796,-0.009 -101.5396562,-1.11339 C 0.01999329,408.25989 0.27712264,421.21873 0.27712264,243.27117 V 80.779374 L 1.4213809,79.214569 c 1.6471067,-2.252464 4.8356498,-3.701927 7.1772076,-3.262648 2.5985155,0.487485 5.1102785,2.741249 5.7924825,5.197501 0.380818,1.371124 0.568386,53.659108 0.570461,159.026678 l 0.0031,156.98388 97.131488,0.14465 c 112.48326,0.16753 98.75675,-0.79692 105.85526,7.43759 l 4.4633,5.17759 h 12.61869 12.6187 l 4.47071,-5.19694 c 2.56096,-2.97696 5.36327,-5.64048 6.56018,-6.23526 2.01503,-1.00133 5.54949,-1.04347 99.22094,-1.18298 l 97.13149,-0.14465 0.003,-156.98388 c 0.002,-105.36757 0.18964,-157.655554 0.57046,-159.026678 0.6822,-2.456252 3.19397,-4.710016 5.79248,-5.197501 2.34157,-0.439279 5.53011,1.010186 7.17721,3.262654 l 1.14426,1.564812 V 243.5483 c 0,154.56645 -0.0493,162.85922 -0.97931,164.56083 -2.0472,3.74549 6.09108,3.47342 -103.89892,3.47342 h -99.66772 l -4.67577,5.53522 c -2.57168,3.04438 -5.47102,5.9126 -6.44298,6.37382 -1.4609,0.69325 -4.78029,0.8386 -19.15082,0.8386 -15.52225,0 -17.57026,-0.10386 -19.1268,-0.96993 z"
     id="path3803"
     inkscape:connector-curvature="0" />
  <path
     style="fill:#ffffff;stroke:#ffffff;stroke-width:0.55424529"
     d="m 72.803767,98.261024 c -2.590756,-2.374252 -3.15022,-6.235654 -1.324843,-9.144022 2.264411,-3.607879 -1.090248,-3.430891 64.986176,-3.428609 58.90779,0.002 60.04817,0.02239 61.82122,1.103424 2.08172,1.269241 4.00813,4.14071 4.01114,5.978933 0.004,2.249137 -1.54812,5.056742 -3.42861,6.203249 -1.81081,1.104021 -2.62877,1.118581 -62.94834,1.120631 l -61.113675,0.002 z"
     id="path3805"
     inkscape:connector-curvature="0" />
  <path
     style="fill:#ffffff;stroke:#ffffff;stroke-width:0.55424529"
     d="m 72.820506,128.20561 c -2.603306,-2.38575 -3.177179,-5.9871 -1.409745,-8.84687 2.283421,-3.69466 -2.002168,-3.46605 64.976839,-3.46605 60.76124,0 60.84452,0.002 62.40725,1.15339 4.03304,2.97268 4.46643,7.695 1.02229,11.13914 l -1.84072,1.84072 h -61.5848 -61.584785 z"
     id="path3807"
     inkscape:connector-curvature="0" />
  <path
     style="fill:#ffffff;stroke:#ffffff;stroke-width:0.55424529"
     d="m 75.654481,159.89871 c -6.174713,-1.89673 -7.209893,-9.7118 -1.726174,-13.03172 1.663422,-1.00707 3.935998,-1.04506 62.513953,-1.04506 60.70587,0 60.78988,0.002 62.35259,1.1534 2.42361,1.78639 3.74298,4.60776 3.28826,7.03164 -0.51102,2.72396 -2.72262,5.23443 -5.2231,5.92891 -2.62743,0.72975 -118.824866,0.69411 -121.205529,-0.0372 z"
     id="path3809"
     inkscape:connector-curvature="0" />
  <path
     style="fill:#ffffff;stroke:#ffffff;stroke-width:0.55424529"
     d="m 74.541666,189.40915 c -4.697026,-2.14214 -5.56323,-8.03952 -1.70075,-11.57922 l 1.965919,-1.80163 h 61.584785 61.5848 l 1.84072,1.84072 c 3.44409,3.4441 3.01077,8.16631 -1.02216,11.13914 -1.55975,1.14975 -1.75498,1.15381 -61.79835,1.28372 -57.319085,0.12401 -60.341143,0.0813 -62.454964,-0.88273 z"
     id="path3811"
     inkscape:connector-curvature="0" />
  <path
     style="fill:#ffffff;stroke:#ffffff;stroke-width:0.55424529"
     d="m 74.336206,219.42021 c -2.796503,-1.37765 -4.05884,-3.73841 -3.772134,-7.05447 0.197507,-2.28437 0.567787,-3.04033 2.239695,-4.57252 l 2.003068,-1.83567 61.113675,0.002 c 60.31957,0.002 61.13753,0.0166 62.94834,1.12063 1.88049,1.1465 3.43229,3.95411 3.42861,6.20325 -0.003,1.83822 -1.92942,4.70969 -4.01114,5.97893 -1.77345,1.08128 -2.90218,1.10116 -61.94198,1.0908 -54.960635,-0.01 -60.296754,-0.0899 -62.008134,-0.93302 z"
     id="path3813"
     inkscape:connector-curvature="0" />
  <path
     style="fill:#ffffff;stroke:#ffffff;stroke-width:0.55424529"
     d="m 74.418345,249.47545 c -3.648139,-1.58594 -5.098653,-6.56256 -2.943142,-10.09772 2.189632,-3.59111 1.169497,-3.49115 35.605177,-3.48887 30.31995,0.002 31.25578,0.0338 33.03847,1.12063 1.88203,1.14744 3.43068,3.95157 3.43068,6.2119 0,2.05915 -1.88076,4.97264 -3.91389,6.06303 -1.7654,0.94679 -3.89238,1.01134 -32.65765,0.99106 -25.163081,-0.0177 -31.095472,-0.16351 -32.559645,-0.80003 z"
     id="path3815"
     inkscape:connector-curvature="0" />
  <path
     style="fill:#ffffff;stroke:#ffffff;stroke-width:0.55424529"
     d="m 73.880092,340.66159 c -3.601487,-2.19596 -3.491156,-1.02616 -3.488869,-36.99079 0.002,-31.34507 0.04338,-32.65718 1.08398,-34.36382 2.264744,-3.7143 -1.875732,-3.49094 64.711697,-3.49094 57.35147,0 60.40299,0.0497 62.19874,1.01275 1.03861,0.55702 2.34412,1.86253 2.90113,2.90114 0.94752,1.76674 1.01276,3.96034 1.01276,34.05191 0,30.12707 -0.0644,32.2858 -1.01694,34.09473 -2.17687,4.13401 2.28278,3.86949 -65.21537,3.86814 -58.941353,-10e-4 -60.455955,-0.0276 -62.187128,-1.08312 z M 187.88915,303.78184 V 280.22642 H 136.34434 84.799528 v 23.55542 23.55542 h 51.544812 51.54481 z"
     id="path3817"
     inkscape:connector-curvature="0" />
  <path
     style="fill:#ffffff;stroke:#ffffff;stroke-width:0.55424529"
     d="m 231.28575,357.28895 c -3.76896,-2.29807 -3.49094,5.84985 -3.49094,-102.30797 0,-109.4765 -0.33836,-100.63332 3.93391,-102.81287 2.66065,-1.35736 3.88191,-1.35736 6.54256,0 4.2725,2.17966 3.93415,-6.67719 3.93184,102.92391 -0.002,96.23751 -0.0217,98.04987 -1.08398,99.79204 -2.06719,3.3903 -6.45665,4.4638 -9.83339,2.40489 z"
     id="path3819"
     inkscape:connector-curvature="0" />
  <path
     style="fill:#ffffff;stroke:#ffffff;stroke-width:0.55424529"
     d="m 231.28575,134.48234 c -3.40016,-2.0732 -3.49094,-2.62582 -3.49094,-21.25139 0,-16.625889 0.0168,-16.875094 1.26512,-18.733302 0.81342,-1.210862 2.09969,-2.173991 3.6026,-2.69754 2.05595,-0.716207 2.61899,-0.716207 4.67494,0 1.50291,0.523549 2.78918,1.486678 3.6026,2.69754 1.24887,1.859066 1.26509,2.101158 1.26305,18.844342 -0.002,15.84461 -0.0733,17.07788 -1.08398,18.73547 -2.06719,3.3903 -6.45665,4.4638 -9.83339,2.40488 z"
     id="path3821"
     inkscape:connector-curvature="0" />
  <path
     style="fill:#ffffff;stroke:#ffffff;stroke-width:0.55424529"
     d="m 260.89989,190.45186 c -3.17541,-2.52243 -3.99366,-6.14742 -2.09173,-9.26668 1.76659,-2.89728 3.44861,-3.63493 9.35072,-4.1007 2.94864,-0.23269 7.23175,-1.01273 9.51801,-1.73341 l 4.15684,-1.31034 0.14263,-35.23082 0.14264,-35.23082 -3.90592,-1.23273 c -2.14826,-0.678 -6.617,-1.54283 -9.93054,-1.92185 -6.81049,-0.779002 -8.55955,-1.604783 -9.82772,-4.639949 -1.54283,-3.692505 -0.0179,-7.326258 3.93793,-9.383499 1.28856,-0.670122 2.64959,-0.762156 6.64679,-0.449461 19.5758,1.531387 34.90988,11.63953 50.04507,32.989439 2.26907,3.20076 4.30854,5.88695 4.53217,5.9693 0.22363,0.0824 1.87253,-1.91293 3.66422,-4.43396 8.43346,-11.86649 15.91528,-19.65585 24.14753,-25.140105 8.43578,-5.619846 17.18437,-8.653657 27.16919,-9.421659 3.95305,-0.304057 5.11428,-0.197607 6.85494,0.628388 4.82413,2.2892 5.58012,8.39467 1.49699,12.089855 -0.83831,0.758661 -2.87024,1.229183 -7.76283,1.797591 -3.645,0.42348 -8.21011,1.33412 -10.14467,2.02366 l -3.51739,1.2537 v 35.16641 35.16641 l 4.15684,1.30492 c 2.28627,0.71771 6.27683,1.44075 8.86793,1.60676 8.15188,0.5223 11.63714,3.25215 10.92554,8.55751 -0.24767,1.84653 -0.80103,2.86898 -2.2924,4.23572 -1.89279,1.73461 -2.13965,1.80163 -6.63639,1.80163 -19.97464,0 -37.09378,-11.21695 -53.94981,-35.34949 l -2.8181,-4.03463 -3.48412,4.866 c -5.46704,7.63539 -9.36283,12.22457 -14.97434,17.63951 -11.37742,10.97886 -22.50559,16.11145 -36.23383,16.71193 -6.25044,0.27339 -6.74339,0.21748 -8.18619,-0.92863 z m 41.0272,-33.00888 c 4.59707,-5.63301 12.88423,-17.57382 12.88423,-18.56464 0,-1.64558 -12.83037,-19.41945 -16.5674,-22.95078 l -1.72269,-1.62787 v 24.25955 c 0,19.15803 0.14569,24.21227 0.6928,24.03475 0.38105,-0.12364 2.50192,-2.4416 4.71306,-5.15101 z m 48.88817,-18.9648 -0.022,-24.24823 -2.56358,2.77123 c -4.12708,4.46137 -15.6825,20.50236 -15.6825,21.77012 0,1.62233 16.61971,23.95512 17.82703,23.95512 0.25468,0 0.45316,-10.91171 0.44106,-24.24824 z"
     id="path3823"
     inkscape:connector-curvature="0" />
  <path
     style="fill:#ffffff;stroke:#ffffff;stroke-width:0.55424529"
     d="m 263.06839,221.46574 c -2.96557,-0.89799 -5.34626,-4.0301 -5.34226,-7.02843 0.003,-1.97052 1.71626,-4.802 3.6882,-6.09411 1.44758,-0.94852 4.65428,-1.00004 62.2405,-1.00004 59.27932,0 60.75663,0.0256 62.50661,1.08414 4.51437,2.73062 4.51437,9.51148 0,12.2421 -1.74688,1.05664 -3.31042,1.08657 -61.65083,1.18002 -32.92217,0.0527 -60.57116,-0.11992 -61.44222,-0.38368 z"
     id="path3825"
     inkscape:connector-curvature="0" />
  <path
     style="fill:#ffffff;stroke:#ffffff;stroke-width:0.55424529"
     d="m 262.16907,250.98912 c -2.35123,-1.1813 -4.44501,-4.16953 -4.44501,-6.34389 0,-2.07973 1.25772,-4.47969 3.11202,-5.93827 l 1.47143,-1.15743 h 61.45462 61.45462 l 1.98633,1.82033 c 3.94983,3.61976 2.89184,9.73564 -2.02447,11.70276 -1.98508,0.79427 -8.44798,0.8872 -61.64914,0.88642 -55.47545,-8.3e-4 -59.55999,-0.0654 -61.3604,-0.96992 z"
     id="path3827"
     inkscape:connector-curvature="0" />
  <path
     style="fill:#ffffff;stroke:#ffffff;stroke-width:0.55424529"
     d="m 261.8809,280.85794 c -2.4477,-1.51193 -3.61183,-3.03019 -3.95772,-5.16168 -0.42461,-2.61653 0.99371,-5.73041 3.23156,-7.09479 1.81082,-1.10403 2.62269,-1.11847 62.52451,-1.11245 47.43778,0.005 60.98878,0.15735 62.05883,0.69881 2.01891,1.02158 3.89668,4.12663 3.89428,6.43953 -0.003,2.67215 -1.80899,5.48602 -4.1491,6.46378 -1.62244,0.67789 -10.94348,0.7977 -61.92477,0.79594 -57.45914,-0.002 -60.08566,-0.0458 -61.67759,-1.02914 z"
     id="path3829"
     inkscape:connector-curvature="0" />
  <path
     style="fill:#ffffff;stroke:#ffffff;stroke-width:0.55424529"
     d="m 261.63795,310.80564 c -2.03313,-1.09038 -3.91389,-4.00387 -3.91389,-6.06303 0,-2.26033 1.54864,-5.06445 3.43068,-6.21189 1.81055,-1.10386 2.63037,-1.11858 62.41347,-1.12063 66.88483,-0.002 62.71498,-0.22617 64.98017,3.48887 1.3914,2.28196 1.37727,5.16966 -0.0366,7.48876 -2.19874,3.60635 1.12774,3.43068 -64.9619,3.43068 -57.07366,0 -60.11631,-0.0498 -61.91189,-1.01276 z"
     id="path3831"
     inkscape:connector-curvature="0" />
  <path
     style="fill:#ffffff;stroke:#ffffff;stroke-width:0.55424529"
     d="m 261.15474,340.62494 c -1.88204,-1.14744 -3.43068,-3.95156 -3.43068,-6.21189 0,-2.05916 1.88076,-4.97265 3.91389,-6.06303 1.76464,-0.94639 3.92285,-1.01262 32.93477,-1.01068 29.81465,0.002 31.11678,0.045 32.82077,1.08398 4.59654,2.80267 4.59654,9.4356 0,12.23827 -1.70458,1.03934 -3.00634,1.08191 -33.08924,1.08191 -30.43324,0 -31.36651,-0.0315 -33.14951,-1.11856 z"
     id="path3833"
     inkscape:connector-curvature="0" />
</svg>
