<?xml version="1.0" encoding="UTF-8" standalone="no"?>
<svg
   xmlns:dc="http://purl.org/dc/elements/1.1/"
   xmlns:cc="http://creativecommons.org/ns#"
   xmlns:rdf="http://www.w3.org/1999/02/22-rdf-syntax-ns#"
   xmlns:svg="http://www.w3.org/2000/svg"
   xmlns="http://www.w3.org/2000/svg"
   xmlns:sodipodi="http://sodipodi.sourceforge.net/DTD/sodipodi-0.dtd"
   xmlns:inkscape="http://www.inkscape.org/namespaces/inkscape"
   version="1.1"
   viewBox="0 0 470 470"
   enable-background="new 0 0 470 470"
   id="svg3903"
   sodipodi:docname="calculator.svg"
   inkscape:version="0.92.4 (5da689c313, 2019-01-14)">
  <metadata
     id="metadata3909">
    <rdf:RDF>
      <cc:Work
         rdf:about="">
        <dc:format>image/svg+xml</dc:format>
        <dc:type
           rdf:resource="http://purl.org/dc/dcmitype/StillImage" />
      </cc:Work>
    </rdf:RDF>
  </metadata>
  <defs
     id="defs3907" />
  <sodipodi:namedview
     pagecolor="#ffffff"
     bordercolor="#666666"
     borderopacity="1"
     objecttolerance="10"
     gridtolerance="10"
     guidetolerance="10"
     inkscape:pageopacity="0"
     inkscape:pageshadow="2"
     inkscape:window-width="1920"
     inkscape:window-height="1017"
     id="namedview3905"
     showgrid="false"
     inkscape:zoom="1.4202315"
     inkscape:cx="206.27373"
     inkscape:cy="223.81363"
     inkscape:window-x="1358"
     inkscape:window-y="-8"
     inkscape:window-maximized="1"
     inkscape:current-layer="svg3903" />
  <g
     id="g3901">
    <path
       d="m311.25,353.75h-61.25c-4.143,0-7.5,3.358-7.5,7.5v61.25c0,4.142 3.357,7.5 7.5,7.5h61.25c4.143,0 7.5-3.358 7.5-7.5v-61.25c0-4.142-3.357-7.5-7.5-7.5zm-7.5,61.25h-46.25v-46.25h46.25v46.25z"
       id="path3873" />
    <path
       d="m220,353.75h-61.25c-4.143,0-7.5,3.358-7.5,7.5v61.25c0,4.142 3.357,7.5 7.5,7.5h61.25c4.143,0 7.5-3.358 7.5-7.5v-61.25c0-4.142-3.357-7.5-7.5-7.5zm-7.5,61.25h-46.25v-46.25h46.25v46.25z"
       id="path3875" />
    <path
       d="m220,262.5h-61.25c-4.143,0-7.5,3.358-7.5,7.5v61.25c0,4.142 3.357,7.5 7.5,7.5h61.25c4.143,0 7.5-3.358 7.5-7.5v-61.25c0-4.142-3.357-7.5-7.5-7.5zm-7.5,61.25h-46.25v-46.25h46.25v46.25z"
       id="path3877" />
    <path
       d="m128.75,353.75h-61.25c-4.143,0-7.5,3.358-7.5,7.5v61.25c0,4.142 3.357,7.5 7.5,7.5h61.25c4.143,0 7.5-3.358 7.5-7.5v-61.25c0-4.142-3.357-7.5-7.5-7.5zm-7.5,61.25h-46.25v-46.25h46.25v46.25z"
       id="path3879" />
    <path
       d="m402.5,202.5h-61.25c-4.143,0-7.5,3.358-7.5,7.5v30c0,4.142 3.357,7.5 7.5,7.5h61.25c4.143,0 7.5-3.358 7.5-7.5v-30c0-4.142-3.357-7.5-7.5-7.5zm-7.5,30h-46.25v-15h46.25v15z"
       id="path3881" />
    <path
       d="m311.25,262.5h-61.25c-4.143,0-7.5,3.358-7.5,7.5v61.25c0,4.142 3.357,7.5 7.5,7.5h61.25c4.143,0 7.5-3.358 7.5-7.5v-61.25c0-4.142-3.357-7.5-7.5-7.5zm-7.5,61.25h-46.25v-46.25h46.25v46.25z"
       id="path3883" />
    <path
       d="m128.75,262.5h-61.25c-4.143,0-7.5,3.358-7.5,7.5v61.25c0,4.142 3.357,7.5 7.5,7.5h61.25c4.143,0 7.5-3.358 7.5-7.5v-61.25c0-4.142-3.357-7.5-7.5-7.5zm-7.5,61.25h-46.25v-46.25h46.25v46.25z"
       id="path3885" />
    <path
       d="m311.25,202.5h-61.25c-4.143,0-7.5,3.358-7.5,7.5v30c0,4.142 3.357,7.5 7.5,7.5h61.25c4.143,0 7.5-3.358 7.5-7.5v-30c0-4.142-3.357-7.5-7.5-7.5zm-7.5,30h-46.25v-15h46.25v15z"
       id="path3887" />
    <path
       d="M402.5,0h-335C46.822,0,30,16.822,30,37.5v395c0,20.678,16.822,37.5,37.5,37.5h335c20.678,0,37.5-16.822,37.5-37.5v-395   C440,16.822,423.178,0,402.5,0z M425,432.5c0,12.407-10.094,22.5-22.5,22.5h-335C55.094,455,45,444.907,45,432.5v-395   C45,25.093,55.094,15,67.5,15h335c12.406,0,22.5,10.093,22.5,22.5V432.5z"
       id="path3889" />
    <path
       d="m402.5,262.5h-61.25c-4.143,0-7.5,3.358-7.5,7.5v152.5c0,4.142 3.357,7.5 7.5,7.5h61.25c4.143,0 7.5-3.358 7.5-7.5v-92.5c0-4.142-3.357-7.5-7.5-7.5s-7.5,3.358-7.5,7.5v85h-46.25v-137.5h46.25v22.5c0,4.142 3.357,7.5 7.5,7.5s7.5-3.358 7.5-7.5v-30c0-4.142-3.357-7.5-7.5-7.5z"
       id="path3891" />
    <path
       d="M402.5,40h-335c-4.143,0-7.5,3.358-7.5,7.5V170c0,4.142,3.357,7.5,7.5,7.5h61.25c4.143,0,7.5-3.358,7.5-7.5   s-3.357-7.5-7.5-7.5H75V55h320v107.5H158.75c-4.143,0-7.5,3.358-7.5,7.5s3.357,7.5,7.5,7.5H402.5c4.143,0,7.5-3.358,7.5-7.5V47.5   C410,43.358,406.643,40,402.5,40z"
       id="path3893" />
    <path
       d="m342.5,85h30c4.143,0 7.5-3.358 7.5-7.5s-3.357-7.5-7.5-7.5h-30c-4.143,0-7.5,3.358-7.5,7.5s3.357,7.5 7.5,7.5z"
       id="path3895" />
    <path
       d="m342.5,145h30c4.143,0 7.5-3.358 7.5-7.5s-3.357-7.5-7.5-7.5h-30c-4.143,0-7.5,3.358-7.5,7.5s3.357,7.5 7.5,7.5z"
       id="path3897" />
    <path
       d="m335,117.5c0,4.142 3.357,7.5 7.5,7.5s7.5-3.358 7.5-7.5v-20c0-4.142-3.357-7.5-7.5-7.5s-7.5,3.358-7.5,7.5v20z"
       id="path3899" />
  </g>
  <path
     style="fill:#ffffff;stroke:#ffffff;stroke-width:0.70411056"
     d="m 62.581009,174.84372 -2.058169,-2.05816 0.01566,-63.9522 c 0.01457,-59.530593 0.09977,-64.056033 1.232193,-65.454037 0.669095,-0.826012 1.908619,-1.855773 2.754497,-2.288359 1.120138,-0.572844 47.55219,-0.78652 170.91173,-0.78652 h 169.37377 l 2.29947,2.054425 2.29947,2.054425 0.19741,62.899776 c 0.10859,34.59487 0.0165,63.63969 -0.2045,64.54403 -0.22106,0.90435 -1.2275,2.40939 -2.23654,3.34453 l -1.83462,1.70026 H 280.58631 155.84123 l -1.8795,-1.96177 c -2.59878,-2.71255 -3.01448,-5.57149 -1.22741,-8.44141 0.78973,-1.26824 2.24848,-2.61486 3.24166,-2.99247 1.14714,-0.43614 45.06321,-0.68656 120.40259,-0.68656 H 394.97536 V 108.60317 54.386655 H 234.79021 74.605051 v 54.216515 54.21651 h 28.234839 28.23483 l 2.48404,2.48405 c 2.26175,2.26174 2.44839,2.75 2.08547,5.45576 -0.26892,2.0049 -0.99821,3.48748 -2.24167,4.55706 l -1.84308,1.58534 H 98.099329 64.639179 Z"
     id="path3911"
     inkscape:connector-curvature="0" />
  <path
     style="fill:#ffffff;stroke:#ffffff;stroke-width:0.70411056"
     d="m 247.38542,246.62287 c -0.81785,-0.33044 -2.16446,-1.46207 -2.99247,-2.51471 -1.44257,-1.83392 -1.50547,-2.61748 -1.50547,-18.75256 0,-18.29631 0.29349,-19.93863 3.85293,-21.56042 1.34687,-0.61368 10.70731,-0.8412 34.60839,-0.8412 h 32.76217 l 2.05817,2.05817 2.05817,2.05817 v 17.27174 c 0,11.41612 -0.27179,17.86826 -0.80167,19.03122 -1.75601,3.85402 -2.60649,3.94361 -36.97466,3.89504 -17.36821,-0.0245 -32.24771,-0.315 -33.06556,-0.64545 z m 56.75968,-21.84146 v -7.74521 h -23.58771 -23.5877 v 7.74521 7.74522 h 23.5877 23.58771 z"
     id="path3913"
     inkscape:connector-curvature="0" />
  <path
     style="fill:#ffffff;stroke:#ffffff;stroke-width:0.70411056"
     d="m 339.18345,123.69551 c -3.5243,-1.91227 -4.05749,-4.06232 -4.05749,-16.36147 0,-10.492307 0.10114,-11.347104 1.60793,-13.589094 3.15221,-4.690264 9.41668,-4.28287 11.94511,0.77682 1.00524,2.011621 1.2313,4.37303 1.23219,12.871824 0.001,11.75895 -0.70035,14.52603 -4.13314,16.30119 -2.61914,1.35441 -4.09946,1.35458 -6.5946,7e-4 z"
     id="path3915"
     inkscape:connector-curvature="0" />
  <path
     style="fill:#ffffff;stroke:#ffffff;stroke-width:0.70411056"
     d="m 339.38917,83.771314 c -0.94695,-0.479236 -2.31983,-1.895422 -3.05084,-3.147082 -1.64093,-2.809667 -1.1546,-5.684112 1.3927,-8.23141 l 1.81162,-1.811624 h 17.91297 17.91297 l 2.05817,2.05817 c 3.45473,3.454731 2.50159,8.963932 -1.94418,11.237522 -2.2423,1.146724 -33.80131,1.054411 -36.09341,-0.105576 z"
     id="path3917"
     inkscape:connector-curvature="0" />
  <path
     style="fill:#ffffff;stroke:#ffffff;stroke-width:0.70411056"
     d="m 337.79349,142.47253 c -1.88967,-1.68842 -2.28347,-2.55084 -2.28347,-5.00083 0,-2.44999 0.3938,-3.31241 2.28347,-5.00083 l 2.28346,-2.04027 h 17.64582 17.64582 l 2.05817,2.05817 c 2.89826,2.89825 2.89826,7.06761 0,9.96587 l -2.05817,2.05817 h -17.64582 -17.64582 z"
     id="path3919"
     inkscape:connector-curvature="0" />
  <path
     style="fill:#ffffff;stroke:#ffffff;stroke-width:0.70411056"
     d="m 337.78408,246.21538 c -1.05523,-0.57265 -2.24342,-1.64811 -2.64042,-2.38991 -0.43811,-0.81861 -0.72181,-8.30684 -0.72181,-19.05193 v -17.70322 l 2.05817,-2.05817 2.05817,-2.05817 h 33.21777 33.21777 l 2.39398,2.39398 2.39397,2.39398 v 16.57117 c 0,9.11414 -0.30895,17.38378 -0.68656,18.37696 -0.37761,0.99319 -1.72422,2.43845 -2.99247,3.2117 -2.21718,1.35182 -3.53863,1.40493 -34.34294,1.38036 -26.90336,-0.0215 -32.34447,-0.1924 -33.95563,-1.06675 z m 57.19128,-21.43397 v -7.74521 h -23.23565 -23.23565 v 7.74521 7.74522 h 23.23565 23.23565 z"
     id="path3921"
     inkscape:connector-curvature="0" />
  <path
     style="fill:#ffffff;stroke:#ffffff;stroke-width:0.70411056"
     d="M 61.931061,469.32997 C 57.74114,468.61942 51.149585,466.00798 47.362702,463.55828 39.247389,458.30855 32.695986,448.56566 31.0035,439.22979 c -1.066495,-5.88286 -1.066495,-402.594687 0,-408.47755 1.247495,-6.881275 5.146477,-14.098482 10.440429,-19.325749 5.498928,-5.429662 9.974486,-7.9698112 17.378794,-9.8635143 5.352113,-1.36883984 8.377241,-1.39283494 175.598737,-1.39283494 119.66954,0 171.39239,0.22747805 174.33077,0.76671 14.1172,2.59069494 25.32254,12.72950624 29.44826,26.64537124 1.03094,3.477323 1.13383,22.299294 1.13383,207.408797 0,185.10949 -0.10289,203.93147 -1.13383,207.40879 -3.53171,11.91229 -12.01158,20.92599 -23.70999,25.2026 l -5.08087,1.85742 -172.85915,0.0843 c -95.07253,0.0464 -173.651267,-0.05 -174.619419,-0.21419 z m 350.502759,-16.2712 c 4.66117,-2.48879 8.35946,-6.21707 10.50897,-10.59415 l 1.95727,-3.98565 V 234.99102 31.503062 l -1.95727,-3.985649 c -2.14951,-4.377079 -5.8478,-8.10536 -10.50897,-10.594149 L 409.40963,15.308519 236.22094,15.126894 C 38.614215,14.919663 59.036746,14.205264 51.658977,21.583033 c -3.153984,3.153984 -4.642844,5.310736 -5.632884,8.159753 -1.31275,3.77767 -1.345741,8.80934 -1.345741,205.248234 0,196.43889 0.03299,201.47055 1.345741,205.24823 1.728895,4.9752 8.428519,11.91742 13.088526,13.56246 2.865782,1.01165 19.750584,1.10673 176.731751,0.99516 l 173.56326,-0.12336 z"
     id="path3923"
     inkscape:connector-curvature="0" />
  <path
     style="fill:#ffffff;stroke:#ffffff;stroke-width:0.70411056"
     d="m 337.78408,428.58002 c -1.05523,-0.57265 -2.24342,-1.64811 -2.64042,-2.38991 -1.00408,-1.87615 -1.00098,-158.02889 0.003,-159.90518 1.82166,-3.40379 2.65364,-3.48155 37.25092,-3.48155 h 32.41294 l 2.29947,2.05458 2.29947,2.05457 v 18.07034 18.07033 l -2.38824,2.13389 c -2.0434,1.82578 -2.78836,2.08022 -5.15945,1.76219 -5.87566,-0.78809 -6.87719,-3.54909 -6.88265,-18.97394 l -0.004,-11.08975 h -23.23565 -23.23565 v 69.3549 69.35489 h 23.21039 23.21038 l 0.20129,-43.86258 c 0.22616,-49.28128 -0.0517,-46.80113 5.4265,-48.44243 2.40725,-0.72123 3.07032,-0.65143 5.10607,0.53751 1.28675,0.75151 2.73516,2.14116 3.21867,3.08811 0.68267,1.33699 0.84036,12.55196 0.7057,50.18732 l -0.17343,48.4656 -2.29947,2.05434 -2.29947,2.05434 -32.55401,-0.0282 c -27.35604,-0.0237 -32.86035,-0.19447 -34.4726,-1.0694 z"
     id="path3925"
     inkscape:connector-curvature="0" />
  <path
     style="fill:#ffffff;stroke:#ffffff;stroke-width:0.70411056"
     d="m 245.2151,336.44433 -1.97557,-1.69889 -0.19601,-33.55707 -0.19601,-33.55707 2.41396,-2.41396 2.41396,-2.41396 h 32.50578 c 33.85527,0 34.34033,0.0405 36.79824,3.07488 1.11384,1.37505 1.21787,4.31506 1.2322,34.82523 l 0.0157,33.32339 -2.05817,2.05816 -2.05817,2.05817 h -33.46015 -33.46015 z m 58.93,-35.98052 v -23.5972 l -23.41168,0.18552 -23.41168,0.18552 -0.18552,23.41168 -0.18552,23.41167 h 23.5972 23.5972 z"
     id="path3927"
     inkscape:connector-curvature="0" />
  <path
     style="fill:#ffffff;stroke:#ffffff;stroke-width:0.70411056"
     d="m 154.25918,336.66738 c -0.87127,-0.81171 -1.88156,-2.25816 -2.2451,-3.21434 -0.37625,-0.9896 -0.65984,-15.2919 -0.65834,-33.20161 0.003,-30.20409 0.0589,-31.55538 1.40854,-33.76902 0.77325,-1.26825 2.21852,-2.61486 3.2117,-2.99247 2.41446,-0.91797 64.38373,-0.91797 66.79818,0 0.99319,0.37761 2.43846,1.72422 3.21171,2.99247 1.34965,2.21364 1.40601,3.56493 1.40854,33.76902 0.001,17.90971 -0.28209,32.21201 -0.65834,33.20161 -0.36354,0.95618 -1.37383,2.40263 -2.2451,3.21434 -1.56234,1.45553 -2.0453,1.47583 -35.1159,1.47583 -33.07059,0 -33.55355,-0.0203 -35.11589,-1.47583 z m 58.35154,-36.19408 v -23.58771 h -23.23565 -23.23564 v 23.58771 23.5877 h 23.23564 23.23565 z"
     id="path3929"
     inkscape:connector-curvature="0" />
  <path
     style="fill:#ffffff;stroke:#ffffff;stroke-width:0.70411056"
     d="m 62.581009,336.08504 -2.058169,-2.05816 0.01566,-33.32339 c 0.01433,-30.51017 0.118358,-33.45018 1.232193,-34.82523 2.457916,-3.03434 2.942978,-3.07488 36.798243,-3.07488 h 32.505784 l 2.41396,2.41396 2.41396,2.41396 -0.19601,33.55707 -0.19601,33.55707 -1.97557,1.69889 -1.97557,1.69888 H 98.099329 64.639179 Z m 59.032911,-35.43571 -0.18552,-23.41168 -23.411672,-0.18552 -23.411677,-0.18552 v 23.5972 23.59719 h 23.597197 23.597192 z"
     id="path3931"
     inkscape:connector-curvature="0" />
  <path
     style="fill:#ffffff;stroke:#ffffff;stroke-width:0.70411056"
     d="m 64.395448,428.86034 c -3.973144,-2.18497 -3.839953,-0.90439 -3.856951,-37.08286 l -0.01566,-33.32338 2.058169,-2.05817 2.05817,-2.05817 h 33.46015 33.460154 l 1.97557,1.69888 1.97557,1.69889 0.19601,33.55707 0.19601,33.55707 -2.41396,2.41396 -2.41396,2.41396 -32.635529,-0.0214 C 76.06786,429.6415 65.36077,429.3912 64.395448,428.86034 Z m 57.218472,-37.0287 0.18552,-23.41167 H 98.202248 74.605051 v 23.59719 23.5972 l 23.411677,-0.18552 23.411672,-0.18552 z"
     id="path3933"
     inkscape:connector-curvature="0" />
  <path
     style="fill:#ffffff;stroke:#ffffff;stroke-width:0.70411056"
     d="m 155.75824,428.95318 c -0.86889,-0.34933 -2.2195,-1.67586 -3.00136,-2.94784 -1.37955,-2.24434 -1.4161,-3.27379 -1.23664,-34.83211 l 0.18492,-32.51941 2.06804,-2.15803 2.06803,-2.15803 h 33.53384 33.53385 l 2.06803,2.15803 2.06804,2.15803 0.18492,32.51941 c 0.17928,31.52755 0.14169,32.58975 -1.23252,34.82533 -0.77959,1.26824 -2.23004,2.61486 -3.22323,2.99247 -2.29718,0.87339 -64.83724,0.83807 -67.01592,-0.0378 z m 56.85248,-36.94551 v -23.5877 h -23.23565 -23.23564 v 23.5877 23.58771 h 23.23564 23.23565 z"
     id="path3935"
     inkscape:connector-curvature="0" />
  <path
     style="fill:#ffffff;stroke:#ffffff;stroke-width:0.70411056"
     d="m 245.26147,427.26363 -2.41396,-2.41396 0.19601,-33.55707 0.19601,-33.55707 1.97557,-1.69889 1.97557,-1.69888 h 33.46015 33.46015 l 2.05817,2.05817 2.05817,2.05817 -0.0157,33.32338 c -0.0144,30.51017 -0.11836,33.45018 -1.2322,34.82523 -2.45791,3.03435 -2.94297,3.07488 -36.79824,3.07488 h -32.50578 z m 58.88363,-35.25596 v -23.5877 h -23.58771 -23.5877 v 23.11829 c 0,12.71507 0.21123,23.32954 0.46941,23.58771 0.25817,0.25817 10.87264,0.46941 23.5877,0.46941 h 23.1183 z"
     id="path3937"
     inkscape:connector-curvature="0" />
</svg>
