<?xml version="1.0" encoding="UTF-8" standalone="no"?>
<svg
   xmlns:dc="http://purl.org/dc/elements/1.1/"
   xmlns:cc="http://creativecommons.org/ns#"
   xmlns:rdf="http://www.w3.org/1999/02/22-rdf-syntax-ns#"
   xmlns:svg="http://www.w3.org/2000/svg"
   xmlns="http://www.w3.org/2000/svg"
   xmlns:sodipodi="http://sodipodi.sourceforge.net/DTD/sodipodi-0.dtd"
   xmlns:inkscape="http://www.inkscape.org/namespaces/inkscape"
   version="1.1"
   viewBox="0 0 470 470"
   enable-background="new 0 0 470 470"
   id="svg12"
   sodipodi:docname="scientist.svg"
   inkscape:version="0.92.4 (5da689c313, 2019-01-14)">
  <metadata
     id="metadata18">
    <rdf:RDF>
      <cc:Work
         rdf:about="">
        <dc:format>image/svg+xml</dc:format>
        <dc:type
           rdf:resource="http://purl.org/dc/dcmitype/StillImage" />
      </cc:Work>
    </rdf:RDF>
  </metadata>
  <defs
     id="defs16" />
  <sodipodi:namedview
     pagecolor="#ffffff"
     bordercolor="#666666"
     borderopacity="1"
     objecttolerance="10"
     gridtolerance="10"
     guidetolerance="10"
     inkscape:pageopacity="0"
     inkscape:pageshadow="2"
     inkscape:window-width="1920"
     inkscape:window-height="1017"
     id="namedview14"
     showgrid="false"
     inkscape:zoom="1.4202315"
     inkscape:cx="400.11093"
     inkscape:cy="193.91286"
     inkscape:window-x="1358"
     inkscape:window-y="-8"
     inkscape:window-maximized="1"
     inkscape:current-layer="svg12" />
  <g
     id="g10">
    <path
       d="M208.958,228.542c63.01,0,114.271-51.262,114.271-114.271S271.968,0,208.958,0C145.949,0,94.688,51.262,94.688,114.271   S145.949,228.542,208.958,228.542z M208.958,15c54.738,0,99.271,44.533,99.271,99.271s-44.533,99.271-99.271,99.271   s-99.271-44.533-99.271-99.271S154.22,15,208.958,15z"
       id="path2" />
    <path
       d="m296.701,341.928h-17.962c-4.142,0-7.5,3.357-7.5,7.5l-.001,15.248-54.779,74.872v-56.966l71.292-97.441c14.836,6.617 28.901,15.163 41.953,25.559 3.24,2.581 7.959,2.046 10.539-1.194 2.581-3.24 2.047-7.958-1.193-10.54-37.309-29.716-82.293-45.424-130.09-45.424-27.653,0-54.062,5.412-78.242,15.212-0.54,0.152-1.068,0.365-1.574,0.644-22.248,9.23-42.571,22.19-60.177,38.107-0.103,0.068-0.209,0.13-0.31,0.203-0.577,0.422-1.069,0.914-1.487,1.451-41.28,38.199-67.17,92.799-67.17,153.341 0,4.142 3.358,7.5 7.5,7.5s7.5-3.358 7.5-7.5c0-53.604 21.861-102.197 57.132-137.338l20.994,28.694c1.412,1.93 3.661,3.071 6.053,3.071h32.5v10.198c0,1.592 0.507,3.144 1.447,4.429l69.779,95.375c0.031,0.043 0.069,0.08 0.101,0.122 0.114,0.149 0.233,0.293 0.357,0.432 0.063,0.071 0.125,0.141 0.19,0.209 0.138,0.144 0.284,0.28 0.433,0.413 0.053,0.047 0.104,0.098 0.158,0.144 0.208,0.174 0.425,0.338 0.651,0.489 0.03,0.02 0.062,0.036 0.092,0.056 0.199,0.129 0.403,0.248 0.614,0.358 0.065,0.034 0.131,0.063 0.197,0.095 0.182,0.088 0.367,0.17 0.557,0.243 0.076,0.029 0.151,0.057 0.228,0.083 0.186,0.065 0.375,0.122 0.568,0.172 0.079,0.021 0.158,0.043 0.238,0.061 0.2,0.045 0.403,0.08 0.608,0.109 0.073,0.01 0.145,0.025 0.219,0.033 0.276,0.031 0.556,0.05 0.84,0.05s0.564-0.019 0.84-0.05c0.074-0.008 0.146-0.023 0.219-0.033 0.205-0.029 0.408-0.064 0.608-0.109 0.08-0.018 0.159-0.04 0.238-0.061 0.193-0.051 0.382-0.107 0.568-0.172 0.076-0.027 0.152-0.054 0.228-0.083 0.19-0.073 0.375-0.155 0.557-0.243 0.066-0.032 0.132-0.061 0.197-0.095 0.211-0.11 0.416-0.229 0.614-0.358 0.03-0.02 0.062-0.036 0.092-0.056 0.226-0.151 0.443-0.315 0.651-0.489 0.055-0.046 0.105-0.097 0.158-0.144 0.149-0.133 0.295-0.269 0.433-0.413 0.065-0.068 0.127-0.139 0.19-0.209 0.125-0.14 0.243-0.284 0.357-0.432 0.032-0.042 0.07-0.079 0.101-0.122l69.78-95.375c0.94-1.285 1.447-2.836 1.447-4.429v-10.198h10.462c4.143,0 7.5-3.358 7.5-7.5s-3.353-7.499-7.495-7.499zm-95.243,97.619l-54.78-74.873v-15.247c0-4.142-3.358-7.5-7.5-7.5h-36.194l-19.75-26.994c14.082-12.015 29.895-22.055 47.012-29.686l71.212,97.333v56.967zm7.5-72.118l-64.319-87.911c20.138-7.099 41.783-10.976 64.319-10.976 22.319,0 43.975,3.693 64.396,10.87l-64.396,88.017z"
       id="path4" />
    <path
       d="m193.959,144.209c4.142,0 7.5-3.358 7.5-7.5 0-4.136 3.365-7.5 7.5-7.5 4.136,0 7.5,3.364 7.5,7.5 0,4.142 3.358,7.5 7.5,7.5h41.648c12.958,0 23.5-10.542 23.5-23.5v-23.249c0-12.958-10.542-23.5-23.5-23.5h-113.296c-12.958,0-23.5,10.542-23.5,23.5v23.249c0,12.958 10.542,23.5 23.5,23.5h41.648zm-50.148-23.5v-23.249c0-4.687 3.813-8.5 8.5-8.5h113.296c4.687,0 8.5,3.813 8.5,8.5v23.249c0,4.687-3.813,8.5-8.5,8.5h-35.433c-3.095-8.73-11.437-15-21.215-15s-18.12,6.27-21.215,15h-35.434c-4.686,0-8.499-3.813-8.499-8.5z"
       id="path6" />
    <path
       d="m416.791,315.156v-79.114c0-4.142-3.357-7.5-7.5-7.5h-37.958c-4.143,0-7.5,3.358-7.5,7.5v79.114c-31.604,11.122-53.21,41.239-53.21,75.155 0,43.94 35.748,79.689 79.688,79.689 43.941,0 79.689-35.748 79.689-79.688 0-33.916-21.605-64.034-53.209-75.156zm-26.48,139.844c-33.131,0-60.509-25.042-64.24-57.189h76.429c4.143,0 7.5-3.358 7.5-7.5s-3.357-7.5-7.5-7.5h-76.432c3.035-25.931 21.599-47.934 47.231-54.904 3.266-0.888 5.532-3.853 5.532-7.237v-77.128h22.958v77.128c0,3.384 2.267,6.349 5.532,7.237 25.632,6.97 44.196,28.973 47.231,54.904h-22.052c-4.143,0-7.5,3.358-7.5,7.5s3.357,7.5 7.5,7.5h22.051c-3.73,32.148-31.108,57.189-64.24,57.189z"
       id="path8" />
  </g>
  <path
     style="fill:#ffffff;stroke:#ffffff;stroke-width:0.70411056"
     d="m 146.63113,143.02074 c -6.95214,-1.88666 -12.19937,-6.30649 -15.39338,-12.96613 -1.85112,-3.85966 -1.85733,-3.93032 -1.85733,-21.12332 V 91.68058 l 1.97157,-4.015092 c 2.46861,-5.027329 7.76585,-9.877888 12.87522,-11.789548 3.78918,-1.417716 5.05808,-1.446069 64.7177,-1.446069 59.65962,0 60.92852,0.02835 64.7177,1.446069 5.10937,1.91166 10.40661,6.762219 12.87523,11.789548 l 1.97156,4.015092 v 17.25071 c 0,15.08383 -0.15886,17.60448 -1.26477,20.06715 -2.12442,4.73074 -4.68874,7.90486 -8.48626,10.50431 -6.32226,4.32767 -9.3599,4.71736 -34.96989,4.48628 l -22.63877,-0.20427 -1.94632,-2.17922 c -1.0953,-1.22636 -2.14347,-3.4121 -2.3972,-4.99889 -0.91991,-5.75279 -5.8016,-8.98685 -10.56257,-6.99759 -2.99251,1.25035 -4.69254,3.67615 -5.19344,7.41059 -0.24765,1.84646 -1.0773,3.4674 -2.44631,4.77957 l -2.07155,1.98554 -23.01429,0.14346 c -18.54999,0.11563 -23.7655,-0.0604 -26.8869,-0.90748 z m 42.88035,-16.85116 c 2.07916,-3.91924 6.23906,-7.76044 10.54587,-9.73791 4.55974,-2.0936 13.21538,-2.0936 17.77513,0 4.3068,1.97747 8.46671,5.81867 10.54586,9.73791 l 1.68747,3.18092 19.01219,-0.003 c 26.53703,-0.004 25.34919,0.93651 25.34919,-20.06455 0,-12.731318 -0.13212,-14.300635 -1.37728,-16.359189 -2.8176,-4.658178 0.29296,-4.455429 -65.17073,-4.247861 l -59.24427,0.187848 -2.41011,2.630075 -2.41012,2.630075 v 14.821432 c 0,21.53094 -1.46424,20.33735 24.99714,20.37658 l 19.01219,0.0282 z"
     id="path3724"
     inkscape:connector-curvature="0" />
  <path
     style="fill:#ffffff;stroke:#ffffff;stroke-width:0.70411056"
     d="m 195.21475,227.42079 c -5.93661,-0.67408 -16.61513,-3.20837 -23.33968,-5.53913 -32.9844,-11.43248 -59.75551,-38.32571 -70.6948,-71.01729 -4.727218,-14.12709 -5.519498,-19.38823 -5.519498,-36.65225 0,-13.3623 0.211923,-16.442328 1.54257,-22.419185 10.237038,-45.981592 43.731188,-79.37367 89.562088,-89.2891512 6.36833,-1.3777847 9.44281,-1.59950491 22.17948,-1.59950491 16.29231,0 22.91371,0.97936121 35.90964,5.31134351 33.46485,11.1549596 60.79526,38.2926786 71.85708,71.3504566 4.66097,13.929095 5.50234,19.43005 5.55122,36.293981 0.0495,17.08484 -1.00948,24.06378 -5.69327,37.51995 -13.64446,39.19954 -47.84575,68.16812 -88.73456,75.15841 -7.66655,1.31066 -24.77304,1.77339 -32.62027,0.88237 z m 25.70004,-14.3545 c 53.2579,-6.50078 91.9702,-54.28349 87.12387,-107.53727 -2.10536,-23.134538 -11.56573,-43.744008 -27.68495,-60.311791 -14.7042,-15.113387 -31.1602,-24.155438 -52.04576,-28.597492 -10.55391,-2.244662 -28.17051,-2.244844 -38.72608,-4.01e-4 -20.68083,4.397392 -37.49675,13.622268 -51.90627,28.474742 -24.30237,25.049417 -33.6928,59.923762 -25.19108,93.554972 12.2436,48.43335 58.91077,80.46169 108.43027,74.41724 z"
     id="path3726"
     inkscape:connector-curvature="0" />
  <path
     style="fill:#ffffff;stroke:#ffffff;stroke-width:0.70411056"
     d="M 2.7536307,467.59671 C 0.15063382,464.99372 -0.12514186,462.35222 0.83096235,449.18057 3.8970459,406.94108 17.702541,369.91065 42.725693,336.80648 71.00413,299.39576 112.57423,271.77722 157.89689,260.28849 c 53.35472,-13.52475 110.71145,-5.23536 157.36872,22.74344 7.58635,4.54929 19.42604,12.75879 23.27717,16.14012 5.31262,4.66454 2.81661,12.48556 -3.99803,12.52743 -2.05963,0.0127 -3.88241,-0.95507 -9.50549,-5.0465 -9.81423,-7.14095 -18.93315,-12.7737 -28.62366,-17.68081 -8.17654,-4.14046 -8.38101,-4.20187 -9.62152,-2.88961 -0.6971,0.73742 -16.83839,22.65728 -35.86953,48.71081 l -34.60207,47.37006 0.18382,28.86263 0.18383,28.86262 27.10825,-37.08521 27.10826,-37.08523 0.37365,-9.22276 c 0.56998,-14.0685 1.42068,-14.76002 17.7037,-14.39087 l 10.55663,0.23933 2.05358,2.29947 c 2.77494,3.10719 2.77489,6.37619 -1.3e-4,9.48327 -2.00713,2.24731 -2.20531,2.30496 -8.73566,2.54123 l -6.68193,0.24176 -0.24176,6.44729 -0.24176,6.44729 -34.73764,47.52747 c -19.10571,26.1401 -35.81488,48.55722 -37.13149,49.81582 -3.28493,3.14017 -6.47634,3.14017 -9.7486,0 -1.31154,-1.2586 -18.019,-23.67572 -37.12767,-49.81582 l -34.74305,-47.52747 -0.24782,-6.51302 -0.24782,-6.51302 h -16.79756 c -11.43402,0 -17.381476,-0.26606 -18.626287,-0.83322 -1.098011,-0.5003 -6.202256,-6.83062 -12.774065,-15.84249 -6.019934,-8.2551 -11.164758,-15.00927 -11.432939,-15.00927 -0.759215,0 -6.397636,6.02791 -12.513674,13.3781 -15.5282,18.66162 -27.028204,39.35847 -34.803161,62.63616 -5.97607,17.89194 -8.8103,33.27174 -9.724858,52.77146 l -0.541769,11.5513 -2.241549,2.00283 c -3.0171391,2.69581 -6.9003074,2.7627 -9.4993773,0.16363 z M 166.97272,334.76846 c -19.02706,-26.03983 -35.15549,-47.93561 -35.84095,-48.6573 -1.21024,-1.2742 -1.51831,-1.17241 -10.65225,3.51964 -14.88068,7.64412 -37.482352,23.30034 -36.963781,25.60489 0.130711,0.58089 4.468616,6.83867 9.639801,13.90618 l 9.40214,12.85002 h 18.4111 c 11.31257,0 19.24812,0.29179 20.58204,0.75679 3.87652,1.35136 4.65679,3.46729 5.06561,13.73687 l 0.36675,9.21285 27.10826,37.05933 27.10825,37.05934 0.18385,-28.85174 0.18384,-28.85173 z M 241.334,323.89877 c 17.42673,-23.86037 31.77687,-43.75396 31.88919,-44.20798 0.19043,-0.76972 -8.24534,-3.53078 -19.2152,-6.28921 -7.65972,-1.92607 -21.64742,-3.92235 -33.34129,-4.75835 -22.30364,-1.5945 -47.65426,1.54447 -70.51502,8.73133 -2.90446,0.9131 -5.28083,1.97659 -5.28083,2.36332 0,1.08278 63.2743,87.52492 64.07406,87.53474 0.38726,0.005 14.96235,-19.51348 32.38909,-43.37385 z"
     id="path3728"
     inkscape:connector-curvature="0" />
  <path
     style="fill:#ffffff;stroke:#ffffff;stroke-width:0.70411056"
     d="m 376.52323,468.44626 c -17.18268,-3.28832 -31.94081,-11.31832 -43.74392,-23.80136 -14.23928,-15.05955 -21.61409,-33.62835 -21.61409,-54.42144 0,-32.51309 18.97357,-60.58836 49.69155,-73.52879 l 3.34452,-1.40894 v -40.76848 c 0,-39.46805 0.0442,-40.82462 1.38436,-42.5284 2.56309,-3.25845 3.9884,-3.43511 25.92979,-3.21382 l 20.53544,0.20711 1.95127,1.95195 1.95127,1.95194 0.35205,41.21549 0.35206,41.21549 5.42585,2.35914 c 30.77503,13.38092 50.6581,47.10905 47.15145,79.98419 -2.15659,20.2183 -9.93267,36.05883 -24.55239,50.01533 -9.94156,9.49055 -21.4878,15.98687 -34.51868,19.42141 -8.45094,2.2274 -25.48229,2.91046 -33.64053,1.34918 z m 29.38487,-15.12685 c 19.01623,-4.9684 33.98558,-16.99805 42.5916,-34.22742 2.3798,-4.76437 4.83421,-11.98738 5.503,-16.19454 0.24623,-1.54904 0.59342,-3.35076 0.7715,-4.00382 0.29351,-1.07628 -0.87069,-1.20804 -12.44275,-1.40822 l -12.76654,-0.22084 -2.053,-2.29947 c -2.35763,-2.64068 -2.7092,-5.95582 -0.90481,-8.53196 2.10131,-3.00003 4.96547,-3.60284 17.11847,-3.60284 h 11.27078 l -0.39984,-2.28836 c -3.08093,-17.63299 -12.5975,-33.04797 -26.67321,-43.2054 -4.37117,-3.15436 -13.58149,-7.7167 -18.4557,-9.14205 -2.35607,-0.68898 -4.30913,-1.83334 -5.45686,-3.19733 l -1.78748,-2.1243 V 283.14463 243.41641 H 390.25338 378.2835 l -0.0157,39.95827 c -0.0145,37.09032 -0.10485,40.07418 -1.25833,41.57316 -0.75338,0.97904 -3.78659,2.53602 -7.70355,3.95431 -9.29796,3.3667 -16.47472,7.71722 -23.19818,14.06261 -10.31129,9.73148 -16.89629,21.5638 -19.54119,35.11279 l -0.92778,4.75275 h 37.85216 c 20.81868,0 38.83781,0.19713 40.0425,0.43807 2.56477,0.51295 5.44631,3.15664 5.87288,5.38811 0.55495,2.90302 -0.79232,6.13153 -3.16153,7.57611 -2.17349,1.32524 -3.78194,1.37887 -41.43086,1.3814 l -39.16957,0.003 1.01675,5.38478 c 4.86926,25.78787 25.71376,46.26477 52.22028,51.29933 7.18476,1.36465 19.8009,0.90656 27.02668,-0.98132 z"
     id="path3730"
     inkscape:connector-curvature="0" />
</svg>
