<?xml version="1.0" encoding="UTF-8" standalone="no"?>
<svg
   xmlns:dc="http://purl.org/dc/elements/1.1/"
   xmlns:cc="http://creativecommons.org/ns#"
   xmlns:rdf="http://www.w3.org/1999/02/22-rdf-syntax-ns#"
   xmlns:svg="http://www.w3.org/2000/svg"
   xmlns="http://www.w3.org/2000/svg"
   xmlns:sodipodi="http://sodipodi.sourceforge.net/DTD/sodipodi-0.dtd"
   xmlns:inkscape="http://www.inkscape.org/namespaces/inkscape"
   version="1.1"
   viewBox="0 0 470 470"
   enable-background="new 0 0 470 470"
   id="svg10"
   sodipodi:docname="statistics.svg"
   inkscape:version="0.92.4 (5da689c313, 2019-01-14)">
  <metadata
     id="metadata16">
    <rdf:RDF>
      <cc:Work
         rdf:about="">
        <dc:format>image/svg+xml</dc:format>
        <dc:type
           rdf:resource="http://purl.org/dc/dcmitype/StillImage" />
      </cc:Work>
    </rdf:RDF>
  </metadata>
  <defs
     id="defs14" />
  <sodipodi:namedview
     pagecolor="#ffffff"
     bordercolor="#666666"
     borderopacity="1"
     objecttolerance="10"
     gridtolerance="10"
     guidetolerance="10"
     inkscape:pageopacity="0"
     inkscape:pageshadow="2"
     inkscape:window-width="1920"
     inkscape:window-height="1017"
     id="namedview12"
     showgrid="false"
     inkscape:zoom="0.50212766"
     inkscape:cx="-325.01825"
     inkscape:cy="325.19505"
     inkscape:window-x="1358"
     inkscape:window-y="-8"
     inkscape:window-maximized="1"
     inkscape:current-layer="svg10" />
  <g
     id="g8">
    <path
       d="M462.5,425H45V7.5C45,3.358,41.643,0,37.5,0S30,3.358,30,7.5v63.333H7.5c-4.143,0-7.5,3.358-7.5,7.5s3.357,7.5,7.5,7.5H30   v55.833H7.5c-4.143,0-7.5,3.358-7.5,7.5s3.357,7.5,7.5,7.5H30V212.5H7.5c-4.143,0-7.5,3.358-7.5,7.5s3.357,7.5,7.5,7.5H30v55.833   H7.5c-4.143,0-7.5,3.358-7.5,7.5s3.357,7.5,7.5,7.5H30v55.833H7.5c-4.143,0-7.5,3.358-7.5,7.5s3.357,7.5,7.5,7.5H30V432.5   c0,4.142,3.357,7.5,7.5,7.5h110.833v22.5c0,4.142,3.357,7.5,7.5,7.5s7.5-3.358,7.5-7.5V440h173.334v22.5c0,4.142,3.357,7.5,7.5,7.5   s7.5-3.358,7.5-7.5V440H462.5c4.143,0,7.5-3.358,7.5-7.5S466.643,425,462.5,425z"
       id="path2" />
    <path
       d="M77.5,410c4.143,0,7.5-3.358,7.5-7.5v-175h63.333v175c0,4.142,3.357,7.5,7.5,7.5s7.5-3.358,7.5-7.5V298.333H222.5V402.5   c0,4.142,3.357,7.5,7.5,7.5s7.5-3.358,7.5-7.5V290.833c0-4.142-3.357-7.5-7.5-7.5h-66.667V220c0-4.142-3.357-7.5-7.5-7.5H77.5   c-4.143,0-7.5,3.358-7.5,7.5v182.5C70,406.642,73.357,410,77.5,410z"
       id="path4" />
    <path
       d="M270,410c4.143,0,7.5-3.358,7.5-7.5V85.833h59.167V402.5c0,4.142,3.357,7.5,7.5,7.5s7.5-3.358,7.5-7.5V156.667H415V402.5   c0,4.142,3.357,7.5,7.5,7.5s7.5-3.358,7.5-7.5V149.167c0-4.142-3.357-7.5-7.5-7.5h-70.833V78.333c0-4.142-3.357-7.5-7.5-7.5H270   c-4.143,0-7.5,3.358-7.5,7.5V402.5C262.5,406.642,265.857,410,270,410z"
       id="path6" />
  </g>
  <path
     style="fill:#ffffff;stroke:#ffffff;stroke-width:0.49788135"
     d="m 153.55703,469.22603 c -2.39799,-0.8341 -4.00468,-2.57292 -4.70392,-5.09079 -0.28881,-1.03994 -0.51952,-6.88126 -0.52106,-13.19303 l -0.003,-11.3268 -56.38506,-0.002 c -55.385247,-0.002 -56.413837,-0.0194 -58.007729,-0.99122 -0.892466,-0.54414 -2.067873,-1.71954 -2.612016,-2.61201 -0.960677,-1.57564 -0.989405,-2.57143 -0.991212,-34.35836 l -0.0019,-32.73557 H 18.108574 c -13.3918114,0 -13.8929012,-0.0922 -16.3460547,-3.00761 -1.86152651,-2.2123 -1.86152651,-6.21105 0,-8.42335 2.4531535,-2.91541 2.9542433,-3.0076 16.3460547,-3.0076 h 12.222818 v -28.1303 -28.1303 l -12.073623,-9.9e-4 c -10.501023,-5e-4 -12.2993037,-0.11416 -13.8062836,-0.8713 -5.02642844,-2.52536 -5.40626336,-9.50982 -0.6863973,-12.62157 1.299358,-0.85665 2.5183498,-0.93865 13.9989099,-0.94164 l 12.575616,-0.003 -0.128582,-28.25476 -0.128581,-28.25477 -12.695975,-0.24894 C 8.207356,226.84009 4.3728112,226.58993 3.5436268,226.117 0.77005559,224.53508 -0.41812893,219.70399 1.19782,216.57909 c 0.4066202,-0.78632 1.4708416,-1.95144 2.3649364,-2.58915 1.5831501,-1.12919 1.9541125,-1.16355 14.1971306,-1.31503 l 12.571505,-0.15554 V 184.44372 156.36807 L 17.349958,156.22002 4.3685238,156.07198 2.413517,153.97526 c -1.72246736,-1.84732 -1.95500668,-2.38636 -1.95500668,-4.53177 0,-2.95721 1.47145998,-5.42221 3.99297508,-6.68907 1.5069799,-0.75713 3.3052606,-0.87061 13.8062836,-0.87129 l 12.073623,-7.7e-4 V 113.75206 85.621764 L 18.257769,85.620768 C 7.756746,85.62027 5.9584653,85.506609 4.4514854,84.749476 1.9299703,83.482846 0.45851032,81.017845 0.45851032,78.060634 c 0,-2.145416 0.23253932,-2.684452 1.95500668,-4.531771 L 4.3685238,71.432145 17.339689,71.28416 30.310853,71.13617 30.445593,37.926107 C 30.576747,5.5999009 30.606834,4.6807225 31.576095,3.3888926 c 1.519251,-2.0248551 3.378581,-2.90484067 6.137666,-2.90484067 2.774145,0 4.971008,1.39494817 6.32725,4.01763167 0.636613,1.2310729 0.72894,27.9613774 0.72894,211.0406464 v 209.63102 l 210.069429,0.12622 210.06943,0.12622 1.37492,1.02653 c 2.33839,1.74587 3.34519,3.49302 3.34241,5.80027 -0.003,2.74201 -1.19158,5.00241 -3.32185,6.31899 -1.68892,1.04381 -1.68989,1.04383 -58.24024,1.04383 h -56.55128 l -0.14843,12.66068 c -0.13932,11.88468 -0.21133,12.74487 -1.17494,14.03438 -2.59859,3.47745 -6.38621,4.3722 -9.73383,2.29943 -3.32115,-2.05639 -3.42926,-2.57656 -3.42926,-16.49981 v -12.49468 h -86.84923 -86.84923 l -0.15554,12.5715 c -0.15147,12.24302 -0.18583,12.61398 -1.31502,14.19713 -2.01228,2.82126 -5.21106,3.91652 -8.30026,2.84199 z"
     id="path18"
     inkscape:connector-curvature="0" />
  <path
     style="fill:#ffffff;stroke:#ffffff;stroke-width:0.49788135"
     d="m 74.137183,408.81941 c -0.954149,-0.50772 -2.236221,-1.79599 -2.849048,-2.86282 l -1.114231,-1.9397 0.118468,-93.19181 0.118469,-93.19182 1.026526,-1.37488 c 0.564589,-0.75618 1.64527,-1.83681 2.401512,-2.4014 1.362993,-1.01758 1.736934,-1.02653 42.875051,-1.02653 41.13817,0 41.51206,0.009 42.87493,1.02653 0.75617,0.56459 1.8368,1.64508 2.40139,2.4011 1.00928,1.3515 1.02884,1.93001 1.16466,34.44752 l 0.13814,33.07294 34.46461,0.002 c 33.71683,0.002 34.50046,0.0237 36.11661,1.00904 0.99603,0.60726 2.03718,1.878 2.6221,3.20028 0.94579,2.13813 0.96679,3.62625 0.83742,59.35908 -0.12827,55.26027 -0.16439,57.21834 -1.08361,58.73715 -1.19476,1.97395 -4.1336,3.65644 -6.38699,3.65644 -1.94545,0 -4.49352,-1.53328 -6.05911,-3.646 -1.03954,-1.40283 -1.0418,-1.50816 -1.1748,-54.64248 l -0.13326,-53.23695 h -29.61515 -29.61516 v 52.61824 c 0,51.60143 -0.0192,52.65797 -0.9958,54.67529 -1.16516,2.40688 -4.00756,4.2319 -6.59105,4.2319 -1.94549,0 -4.49357,-1.53332 -6.0591,-3.64608 l -1.04155,-1.40562 -0.13117,-88.83906 -0.13118,-88.83907 -31.73323,0.12816 -31.73323,0.12815 -0.24894,88.89377 c -0.236931,84.60507 -0.292282,88.95992 -1.147285,90.26477 -2.05379,3.13435 -6.01117,4.1504 -9.315992,2.39186 z"
     id="path20"
     inkscape:connector-curvature="0" />
  <path
     style="fill:#ffffff;stroke:#ffffff;stroke-width:0.49788135"
     d="m 266.83496,408.89839 c -0.95296,-0.49414 -2.24123,-1.65973 -2.86282,-2.59019 l -1.13015,-1.69174 0.002,-164.10275 c 0.002,-162.870267 0.009,-164.114938 0.99121,-165.725416 0.54414,-0.892466 1.71955,-2.067873 2.61201,-2.612016 1.58276,-0.965017 2.58524,-0.989397 40.7572,-0.991212 l 39.13452,-0.0019 1.69175,1.130157 c 3.5737,2.387385 3.43269,0.864523 3.43355,37.082237 l 7.8e-4,32.48676 36.22087,9.9e-4 c 40.38595,0.001 38.41224,-0.16516 40.81634,3.43356 l 1.13016,1.69174 -0.002,128.75317 c -0.002,127.59705 -0.0108,128.76775 -0.99121,130.37584 -1.51992,2.49287 -3.79491,3.69825 -6.53601,3.46307 -2.76607,-0.23734 -5.00212,-1.71463 -6.10127,-4.03094 -0.73882,-1.55744 -0.80808,-12.30936 -0.80808,-125.47613 V 156.32092 H 383.3294 351.465 v 123.77274 c 0,113.16677 -0.0693,123.91869 -0.80821,125.4759 -1.09916,2.31631 -3.33521,3.79361 -6.10127,4.03094 -2.7411,0.23519 -5.01609,-0.9702 -6.53601,-3.46306 -0.98177,-1.61023 -0.98936,-2.8451 -0.99121,-161.06917 L 337.0263,85.621764 H 307.15343 277.28054 V 244.82709 c 0,153.99641 -0.0302,159.26157 -0.92179,160.92413 -0.50699,0.94534 -1.48961,2.14272 -2.18359,2.66086 -1.82397,1.36179 -5.21818,1.58667 -7.3402,0.48631 z"
     id="path22"
     inkscape:connector-curvature="0" />
</svg>
