<?xml version="1.0" encoding="UTF-8" standalone="no"?>
<svg
   xmlns:dc="http://purl.org/dc/elements/1.1/"
   xmlns:cc="http://creativecommons.org/ns#"
   xmlns:rdf="http://www.w3.org/1999/02/22-rdf-syntax-ns#"
   xmlns:svg="http://www.w3.org/2000/svg"
   xmlns="http://www.w3.org/2000/svg"
   xmlns:sodipodi="http://sodipodi.sourceforge.net/DTD/sodipodi-0.dtd"
   xmlns:inkscape="http://www.inkscape.org/namespaces/inkscape"
   version="1.1"
   viewBox="0 0 470.005 470.005"
   enable-background="new 0 0 470.005 470.005"
   id="svg8"
   sodipodi:docname="telescope.svg"
   inkscape:version="0.92.4 (5da689c313, 2019-01-14)">
  <metadata
     id="metadata14">
    <rdf:RDF>
      <cc:Work
         rdf:about="">
        <dc:format>image/svg+xml</dc:format>
        <dc:type
           rdf:resource="http://purl.org/dc/dcmitype/StillImage" />
      </cc:Work>
    </rdf:RDF>
  </metadata>
  <defs
     id="defs12" />
  <sodipodi:namedview
     pagecolor="#ffffff"
     bordercolor="#666666"
     borderopacity="1"
     objecttolerance="10"
     gridtolerance="10"
     guidetolerance="10"
     inkscape:pageopacity="0"
     inkscape:pageshadow="2"
     inkscape:window-width="1920"
     inkscape:window-height="1017"
     id="namedview10"
     showgrid="false"
     inkscape:zoom="0.50212231"
     inkscape:cx="-218.80108"
     inkscape:cy="318.7637"
     inkscape:window-x="1358"
     inkscape:window-y="-8"
     inkscape:window-maximized="1"
     inkscape:current-layer="svg8" />
  <g
     id="g6">
    <path
       d="m469.432,96.718l-38.144-92.086c-1.585-3.827-5.973-5.646-9.799-4.059l-126.339,52.332c-3.827,1.585-5.645,5.973-4.059,9.799l.995,2.402-206.151,85.39c-1.838,0.761-3.298,2.221-4.059,4.059-0.762,1.838-0.762,3.902 0,5.74l.995,2.403-78.238,32.409c-3.827,1.585-5.645,5.973-4.059,9.799l22.682,54.759c0.761,1.838 2.221,3.298 4.059,4.059 0.919,0.38 1.895,0.571 2.87,0.571s1.951-0.19 2.87-0.571l78.239-32.407 .995,2.403c1.196,2.888 3.988,4.632 6.932,4.632 0.956,0 1.929-0.184 2.867-0.573l185.363-76.78c3.827-1.585 5.645-5.973 4.059-9.799-1.585-3.827-5.971-5.646-9.799-4.059l-178.435,73.91-24.673-59.564 199.223-82.52 31.407,75.825c0.761,1.838 2.221,3.298 4.059,4.059 0.919,0.38 1.895,0.571 2.87,0.571s1.951-0.19 2.87-0.571l27.713-11.479c0.007-0.003 98.627-40.853 98.627-40.853 1.838-0.761 3.298-2.221 4.059-4.059 0.763-1.84 0.763-3.904 0.001-5.742zm-363.878,120.74l-71.31,29.537-16.941-40.901 71.31-29.537 16.941,40.901zm234.667-75.337l-31.407-75.824c-0.001-0.001-0.995-2.403-0.995-2.403l13.859-5.741 32.402,78.227-13.859,5.741zm27.717-11.481l-32.402-78.227 84.766-35.111 32.403,78.227-84.767,35.111z"
       id="path2" />
    <path
       d="m282.462,320.182h0.13c4.143,0 7.5-3.358 7.5-7.5s-3.357-7.5-7.5-7.5h-4.301l-6.815-24.509c-0.902-3.245-3.857-5.491-7.226-5.491h-21.747v-54.809l24.616-10.197c3.827-1.585 5.645-5.973 4.059-9.799-1.586-3.826-5.972-5.644-9.799-4.059l-29.257,12.119c-0.022,0.009-0.045,0.018-0.067,0.028l-29.17,12.083c-3.827,1.585-5.645,5.973-4.059,9.799 1.196,2.888 3.988,4.632 6.932,4.632 0.956,0 1.929-0.184 2.867-0.573l18.877-7.819v48.596h-21.747c-3.368,0-6.323,2.246-7.226,5.491l-6.815,24.509h-4.301c-4.143,0-7.5,3.358-7.5,7.5s3.357,7.5 7.5,7.5h0.13l-39.014,140.312c-1.11,3.991 1.226,8.125 5.217,9.235 3.989,1.107 8.125-1.227 9.234-5.217l40.132-144.33h24.39v142.321c0,4.142 3.357,7.5 7.5,7.5s7.5-3.358 7.5-7.5v-142.322h24.39l40.132,144.33c0.923,3.319 3.938,5.493 7.222,5.493 0.665,0 1.341-0.089 2.013-0.276 3.991-1.11 6.327-5.245 5.217-9.235l-39.014-140.312zm-75.177-15l4.171-15h47.096l4.171,15h-55.438z"
       id="path4" />
  </g>
  <path
     style="fill:#ffffff;stroke:#ffffff;stroke-width:0.49788666"
     d="m 26.549754,262.93751 c -0.875094,-0.54985 -1.921635,-1.51453 -2.325647,-2.14374 -0.404012,-0.6292 -5.924057,-13.68458 -12.266766,-29.01195 -12.76420408,-30.84513 -12.73583075,-30.74919 -10.0702701,-34.05079 1.3458584,-1.667 4.5807049,-3.1038 40.7437251,-18.09692 21.604988,-8.95739 39.562724,-16.40032 39.906082,-16.53985 0.484827,-0.19701 0.443084,-0.70653 -0.186877,-2.28096 -0.529592,-1.32358 -0.721886,-2.81927 -0.553979,-4.30893 0.493396,-4.3774 -0.724032,-3.7682 46.917918,-23.47796 127.07844,-52.573113 162.84486,-67.422826 163.19378,-67.755763 0.21166,-0.201963 0.0436,-1.183855 -0.37342,-2.181973 -1.38692,-3.319376 -0.76407,-6.293631 1.80835,-8.635237 0.64215,-0.584534 8.89724,-4.251514 18.34464,-8.148838 9.44739,-3.897325 38.15374,-15.77808 63.79188,-26.401678 C 401.1173,9.2793236 422.626,0.54279393 423.27629,0.48841067 c 2.87874,-0.24075081 4.01512,0.0856343 5.67336,1.62947603 1.51521,1.4106747 4.22717,7.6319219 21.15287,48.5247553 15.26733,36.886157 19.41444,47.362763 19.41297,49.041836 -0.002,2.739412 -1.41983,5.062162 -3.83722,6.287982 -1.60923,0.81602 -37.41415,15.69562 -111.59224,46.37483 -18.59293,7.68983 -18.81357,7.74318 -22.16187,5.35899 -1.8213,-1.29688 -1.20449,0.0974 -18.99689,-42.94154 -8.15077,-19.716309 -14.8625,-35.902828 -14.91495,-35.970043 -0.0524,-0.06721 -31.22053,12.769479 -69.26239,28.525983 -38.04186,15.7565 -82.80586,34.29554 -99.47555,41.19786 -16.66969,6.90231 -30.395319,12.77409 -30.501389,13.0484 -0.251363,0.65004 23.993329,59.17369 24.597409,59.37505 0.25343,0.0845 40.54393,-16.47266 89.53444,-36.79363 52.77514,-21.89083 89.91045,-37.03138 91.12708,-37.15374 3.98425,-0.40067 7.20413,2.36748 7.53396,6.47698 0.28062,3.49634 -1.10638,5.61541 -4.85746,7.42125 -1.50611,0.72507 -43.91743,18.36893 -94.24739,39.20857 -66.48799,27.53005 -92.02731,37.89027 -93.40459,37.89027 -2.56328,0 -4.99362,-1.7206 -6.52382,-4.61864 -0.68459,-1.29656 -1.46876,-2.26426 -1.7426,-2.15045 -0.27384,0.11381 -17.861685,7.42542 -39.084104,16.24802 -41.3034,17.17068 -42.041938,17.42364 -45.156162,15.46689 z m 44.27086,-30.78135 c 19.092474,-7.88088 34.719896,-14.56269 34.727596,-14.84847 0.008,-0.28577 -3.75746,-9.5838 -8.367017,-20.66229 -5.981366,-14.37546 -8.582988,-20.09622 -9.086432,-19.98033 -0.797977,0.18369 -68.95286,28.33925 -70.256173,29.02363 -0.786728,0.41311 -0.781781,0.58204 0.07486,2.55631 0.50449,1.16268 4.332878,10.36539 8.50753,20.45046 6.960645,16.81542 7.677199,18.31379 8.63816,18.06302 0.576337,-0.1504 16.669,-6.72145 35.76148,-14.60233 z M 348.69126,138.88783 c 4.62443,-1.88717 5.35928,-2.34121 5.1843,-3.20323 -0.50281,-2.47694 -31.95021,-77.429993 -32.48664,-77.429993 -0.73362,0 -12.7757,4.924567 -13.34068,5.455628 -0.22153,0.208226 6.68945,17.493925 15.35774,38.412665 8.6683,20.91874 15.95931,38.54277 16.20225,39.16451 0.41481,1.06161 0.54078,1.08992 2.06828,0.46487 0.89462,-0.36607 4.05126,-1.65507 7.01475,-2.86445 z m 61.65485,-25.55948 C 436.57437,102.4538 452.78446,95.480005 452.69787,95.108053 452.59023,94.645701 420.76815,17.51896 420.50422,17.08075 c -0.12275,-0.203792 -84.18999,34.769561 -84.62639,35.205969 -0.27753,0.277522 5.88313,15.812034 15.6823,39.543981 8.87668,21.49779 16.17417,39.0933 16.21667,39.10112 0.0425,0.008 19.19869,-7.91373 42.56931,-17.60347 z"
     id="path3719"
     inkscape:connector-curvature="0" />
  <path
     style="fill:#ffffff;stroke:#ffffff;stroke-width:0.49788666"
     d="m 232.892,469.28338 c -2.50171,-0.87686 -3.34309,-1.63956 -4.41976,-4.00643 -0.86238,-1.89581 -0.90646,-5.43216 -0.91687,-73.56275 l -0.0109,-71.57121 h -12.33528 -12.33527 l -20.09316,72.31804 c -11.05124,39.77492 -20.4105,72.94408 -20.79836,73.70924 -1.19754,2.3625 -3.45465,3.42185 -6.82812,3.20471 -2.62175,-0.16875 -3.11009,-0.37996 -4.57536,-1.97885 -0.9022,-0.98447 -1.78421,-2.55673 -1.96002,-3.49391 -0.25262,-1.34654 3.76826,-16.42033 19.16844,-71.8603 10.71846,-38.58598 19.59807,-70.53671 19.73245,-71.00162 0.18593,-0.64323 -0.23155,-0.97345 -1.74635,-1.38135 -5.38055,-1.44883 -7.32917,-8.09402 -3.49715,-11.92603 1.68892,-1.68893 4.13607,-2.51967 7.43425,-2.52375 l 2.24594,-0.003 3.47976,-12.55455 c 1.91386,-6.90501 3.93231,-13.23439 4.48544,-14.0653 2.00117,-3.00612 3.21286,-3.25172 16.04693,-3.25258 l 11.57586,-7.7e-4 v -24.39645 c 0,-13.41804 -0.12049,-24.39644 -0.26776,-24.39644 -0.14727,0 -4.6061,1.79239 -9.90851,3.98309 -7.01854,2.89973 -10.22967,3.9822 -11.80599,3.97981 -7.39974,-0.0112 -9.58641,-10.13328 -2.91207,-13.48 0.95843,-0.48059 14.79393,-6.26934 30.74555,-12.86389 30.99597,-12.81403 31.51606,-12.97851 34.73924,-10.98648 4.09914,2.53341 4.30326,9.088 0.36823,11.82457 -0.75719,0.52657 -4.51339,2.24622 -8.34711,3.82143 -3.83373,1.57522 -9.37894,3.87341 -12.3227,5.1071 l -5.35228,2.24307 v 27.5821 27.58209 h 11.58363 c 12.80771,0 13.95407,0.23575 16.04908,3.30048 0.54767,0.80118 2.55051,7.10779 4.45075,14.0147 l 3.45498,12.55802 2.27072,0.003 c 3.32229,0.004 5.76624,0.83097 7.45902,2.52374 3.82266,3.82266 1.88439,10.47695 -3.47185,11.91923 -1.08097,0.29108 -1.9654,0.60951 -1.9654,0.70763 0,0.0981 8.85753,32.0301 19.6834,70.95997 21.28745,76.54974 20.4095,72.79352 17.7143,75.78922 -3.583,3.98247 -9.94833,3.05293 -11.98046,-1.74953 -0.48268,-1.14092 -9.81479,-34.28128 -20.73801,-73.64544 l -19.86044,-71.571 H 254.8125 242.4942 l -0.13105,72.06909 c -0.12996,71.47067 -0.13947,72.08342 -1.14444,73.79409 -1.76192,2.99912 -5.22803,4.3633 -8.32671,3.27721 z m 29.81384,-164.94829 c -0.14061,-0.47922 -1.09448,-3.95198 -2.11972,-7.71724 l -1.86408,-6.84595 h -23.7093 -23.7093 l -1.9005,6.84595 c -1.04527,3.76526 -2.01018,7.23802 -2.14424,7.71724 -0.23006,0.82236 1.32738,0.8713 27.72952,0.8713 26.40668,0 27.95896,-0.0488 27.71762,-0.8713 z"
     id="path3721"
     inkscape:connector-curvature="0" />
</svg>
